<svg xmlns="http://www.w3.org/2000/svg" xmlns:xlink="http://www.w3.org/1999/xlink" width="20" height="20" viewBox="0 0 20 20"><defs><style>.a{fill:none;}.b{opacity:0.6;clip-path:url(#a);}</style><clipPath id="a"><rect class="a" width="20" height="20"/></clipPath></defs><g class="b" transform="translate(20) rotate(90)"><path d="M13,14a4,4,0,0,1-8,0V3a3,3,0,0,1,6,0v9a2,2,0,0,1-4,0V4H8v8a1,1,0,0,0,2,0V3A2,2,0,0,0,6,3V14a3,3,0,0,0,6,0V4h1Z" transform="translate(1 1)"/><rect class="a" width="20" height="20"/></g></svg>